<svg width="236" height="81" viewBox="0 0 236 81" fill="none" xmlns="http://www.w3.org/2000/svg">
<path d="M44.8698 43.4385C44.8698 42.1339 44.6551 41.143 44.2257 40.4659C43.8129 39.7723 43.2679 39.4255 42.5908 39.4255C42.2935 39.4255 41.9137 39.4916 41.4513 39.6237C41.0054 39.7558 40.5265 39.9457 40.0146 40.1935C39.5026 40.4412 38.9824 40.7302 38.454 41.0605C37.942 41.3907 37.4631 41.7541 37.0172 42.1504V60.7538H29.239V25.2811L34.7135 22.4571H37.0172V37.4438C38.1897 36.5851 39.4944 35.9493 40.9311 35.5364C42.3844 35.1071 43.8046 34.8924 45.1918 34.8924C46.2157 34.8924 47.1735 35.0988 48.0653 35.5117C48.9736 35.908 49.758 36.4612 50.4186 37.1713C51.0957 37.8649 51.6241 38.6824 52.0039 39.6237C52.4003 40.565 52.5985 41.5641 52.5985 42.6211V60.7538H44.8698V43.4385ZM69.1334 61.3235C67.3333 61.3235 65.6406 60.9932 64.0553 60.3326C62.4699 59.6556 61.0909 58.7555 59.9184 57.6326C58.7459 56.4931 57.8129 55.1802 57.1193 53.6939C56.4422 52.1911 56.1036 50.6057 56.1036 48.9378C56.1036 46.9395 56.4174 45.0899 57.0449 43.389C57.6725 41.6715 58.5643 40.1852 59.7203 38.9301C60.8763 37.675 62.2552 36.7007 63.8571 36.0071C65.4755 35.297 67.2755 34.9419 69.2573 34.9419C71.0243 34.9419 72.6427 35.2227 74.1125 35.7841C75.5822 36.3456 76.8373 37.1135 77.8777 38.0879C78.9346 39.0622 79.7521 40.21 80.3301 41.5311C80.9081 42.8523 81.1971 44.2642 81.1971 45.767H63.6341C63.7002 47.1707 63.9066 48.5084 64.2534 49.78C64.6167 51.0516 65.0957 52.1746 65.6902 53.1489C66.2847 54.1068 66.9783 54.8747 67.771 55.4527C68.5802 56.0142 69.4719 56.2949 70.4463 56.2949C71.2885 56.2949 72.1142 56.1545 72.9234 55.8738C73.7491 55.5765 74.5088 55.1802 75.2024 54.6848C75.896 54.1728 76.4988 53.5866 77.0107 52.926C77.5227 52.2489 77.8942 51.5223 78.1254 50.7461L82.0393 51.3654C81.643 52.7361 81.0072 54.0242 80.1319 55.2297C79.2732 56.4353 78.2575 57.4922 77.085 58.4005C75.929 59.3088 74.6657 60.0271 73.295 60.5556C71.9243 61.0675 70.5371 61.3235 69.1334 61.3235ZM72.3785 43.1413C72.3124 42.3981 72.1473 41.721 71.883 41.11C71.6353 40.4825 71.3133 39.9457 70.9169 39.4999C70.5206 39.054 70.0582 38.7154 69.5297 38.4842C69.0013 38.2365 68.4315 38.1127 67.8205 38.1127C67.3416 38.1127 66.8709 38.2365 66.4085 38.4842C65.9461 38.7154 65.525 39.054 65.1452 39.4999C64.7819 39.9292 64.4681 40.4577 64.2039 41.0852C63.9562 41.6963 63.791 42.3816 63.7085 43.1413H72.3785ZM93.0036 60.7538H85.3492V25.2811L90.6998 22.4571H93.0036V60.7538ZM105.753 60.7538H98.0988V25.2811L103.449 22.4571H105.753V60.7538ZM123.284 61.2244C121.269 61.2244 119.403 60.8941 117.685 60.2336C115.984 59.573 114.506 58.6647 113.251 57.5087C112.013 56.3527 111.038 54.9985 110.328 53.4462C109.635 51.8773 109.288 50.1846 109.288 48.368C109.288 46.4193 109.635 44.6275 110.328 42.9926C111.038 41.3412 112.013 39.921 113.251 38.7319C114.49 37.5429 115.959 36.6181 117.66 35.9575C119.378 35.2805 121.244 34.9419 123.259 34.9419C125.274 34.9419 127.14 35.2722 128.857 35.9328C130.575 36.5768 132.053 37.4686 133.291 38.6081C134.546 39.7476 135.529 41.0935 136.239 42.6458C136.949 44.1817 137.304 45.8413 137.304 47.6249C137.304 49.491 136.949 51.2498 136.239 52.9012C135.545 54.5526 134.571 55.9976 133.316 57.2362C132.077 58.4583 130.599 59.4326 128.882 60.1592C127.164 60.8694 125.298 61.2244 123.284 61.2244ZM124.175 58.128C124.869 58.128 125.513 57.905 126.108 57.4592C126.702 56.9968 127.214 56.3857 127.643 55.6261C128.089 54.8499 128.428 53.9581 128.659 52.9508C128.907 51.9434 129.031 50.8947 129.031 49.8048C129.031 48.1864 128.907 46.6671 128.659 45.2468C128.428 43.8101 128.04 42.555 127.495 41.4816C126.95 40.4081 126.24 39.5577 125.364 38.9301C124.506 38.3026 123.449 37.9888 122.194 37.9888C121.583 37.9888 120.996 38.2117 120.435 38.6576C119.873 39.1035 119.378 39.7063 118.949 40.4659C118.519 41.2091 118.172 42.0761 117.908 43.0669C117.66 44.0413 117.537 45.0734 117.537 46.1634C117.537 47.7983 117.685 49.3424 117.982 50.7956C118.296 52.2489 118.734 53.5205 119.295 54.6104C119.873 55.6839 120.567 56.5426 121.376 57.1867C122.202 57.8142 123.135 58.128 124.175 58.128ZM143.246 66.2035C144.022 67.3925 144.79 68.21 145.55 68.6558C146.309 69.1182 147.11 69.3494 147.953 69.3494C148.167 69.3494 148.357 69.2916 148.522 69.176C148.688 69.077 148.828 68.887 148.943 68.6063C149.059 68.3256 149.142 67.9457 149.191 67.4668C149.241 66.9879 149.266 66.3769 149.266 65.6337V37.6915L154.69 34.8676H156.994V61.8685C156.994 64.1144 156.705 65.9227 156.127 67.2934C155.566 68.6806 154.798 69.754 153.823 70.5137C152.866 71.2734 151.743 71.7853 150.455 72.0495C149.166 72.3138 147.804 72.4459 146.367 72.4459C145.376 72.4459 144.509 72.3303 143.766 72.0991C143.007 71.8844 142.346 71.6119 141.785 71.2816C141.207 70.9513 140.711 70.588 140.298 70.1917C139.885 69.8118 139.522 69.4568 139.208 69.1265L143.246 66.2035ZM148.968 26.5444C148.968 26.0325 149.076 25.5453 149.29 25.0829C149.505 24.6205 149.794 24.2241 150.157 23.8939C150.537 23.5636 150.975 23.2993 151.47 23.1012C151.966 22.903 152.502 22.8039 153.08 22.8039C153.642 22.8039 154.17 22.903 154.666 23.1012C155.178 23.2993 155.624 23.5636 156.003 23.8939C156.383 24.2241 156.68 24.6205 156.895 25.0829C157.11 25.5453 157.217 26.0325 157.217 26.5444C157.217 27.0563 157.11 27.5435 156.895 28.0059C156.68 28.4518 156.383 28.8399 156.003 29.1702C155.624 29.5005 155.178 29.7647 154.666 29.9629C154.17 30.161 153.642 30.2601 153.08 30.2601C152.502 30.2601 151.966 30.161 151.47 29.9629C150.975 29.7647 150.537 29.5005 150.157 29.1702C149.794 28.8399 149.505 28.4518 149.29 28.0059C149.076 27.5435 148.968 27.0563 148.968 26.5444ZM173.803 61.3235C172.003 61.3235 170.311 60.9932 168.725 60.3326C167.14 59.6556 165.761 58.7555 164.588 57.6326C163.416 56.4931 162.483 55.1802 161.789 53.6939C161.112 52.1911 160.774 50.6057 160.774 48.9378C160.774 46.9395 161.087 45.0899 161.715 43.389C162.342 41.6715 163.234 40.1852 164.39 38.9301C165.546 37.675 166.925 36.7007 168.527 36.0071C170.145 35.297 171.946 34.9419 173.927 34.9419C175.694 34.9419 177.313 35.2227 178.782 35.7841C180.252 36.3456 181.507 37.1135 182.548 38.0879C183.605 39.0622 184.422 40.21 185 41.5311C185.578 42.8523 185.867 44.2642 185.867 45.767H168.304C168.37 47.1707 168.577 48.5084 168.923 49.78C169.287 51.0516 169.766 52.1746 170.36 53.1489C170.955 54.1068 171.648 54.8747 172.441 55.4527C173.25 56.0142 174.142 56.2949 175.116 56.2949C175.958 56.2949 176.784 56.1545 177.593 55.8738C178.419 55.5765 179.179 55.1802 179.872 54.6848C180.566 54.1728 181.169 53.5866 181.681 52.926C182.193 52.2489 182.564 51.5223 182.795 50.7461L186.709 51.3654C186.313 52.7361 185.677 54.0242 184.802 55.2297C183.943 56.4353 182.928 57.4922 181.755 58.4005C180.599 59.3088 179.336 60.0271 177.965 60.5556C176.594 61.0675 175.207 61.3235 173.803 61.3235ZM177.048 43.1413C176.982 42.3981 176.817 41.721 176.553 41.11C176.305 40.4825 175.983 39.9457 175.587 39.4999C175.191 39.054 174.728 38.7154 174.2 38.4842C173.671 38.2365 173.102 38.1127 172.49 38.1127C172.012 38.1127 171.541 38.2365 171.079 38.4842C170.616 38.7154 170.195 39.054 169.815 39.4999C169.452 39.9292 169.138 40.4577 168.874 41.0852C168.626 41.6963 168.461 42.3816 168.378 43.1413H177.048ZM206.022 59.2675C205.08 59.9115 204.056 60.4152 202.95 60.7785C201.843 61.1418 200.753 61.3235 199.68 61.3235C198.095 61.3235 196.6 60.9684 195.196 60.2583C193.809 59.5482 192.595 58.5986 191.555 57.4096C190.515 56.2041 189.697 54.8251 189.103 53.2728C188.508 51.7039 188.211 50.069 188.211 48.368C188.211 46.6671 188.574 45.0156 189.301 43.4137C190.027 41.7953 191.018 40.3586 192.273 39.1035C193.545 37.8484 195.023 36.8411 196.707 36.0814C198.408 35.3217 200.225 34.9419 202.157 34.9419C202.9 34.9419 203.594 34.9997 204.238 35.1153C204.899 35.2309 205.493 35.3878 206.022 35.586V25.2811L211.372 22.4571H213.676V60.7538H206.022V59.2675ZM206.022 43.5128C206.022 42.7036 205.889 41.9605 205.625 41.2834C205.377 40.6063 205.039 40.0283 204.61 39.5494C204.197 39.054 203.726 38.6741 203.198 38.4099C202.669 38.1457 202.141 38.0136 201.612 38.0136C200.919 38.0136 200.258 38.2448 199.63 38.7072C199.003 39.1531 198.45 39.7806 197.971 40.5898C197.508 41.3825 197.137 42.3321 196.856 43.4385C196.575 44.5285 196.435 45.7175 196.435 47.0056C196.435 48.4093 196.592 49.747 196.906 51.0186C197.236 52.2902 197.674 53.4132 198.219 54.3875C198.763 55.3453 199.399 56.1132 200.126 56.6912C200.853 57.2692 201.629 57.5582 202.454 57.5582C202.735 57.5582 203.041 57.517 203.371 57.4344C203.701 57.3353 204.023 57.2032 204.337 57.038C204.667 56.8729 204.973 56.683 205.254 56.4683C205.551 56.2371 205.807 55.9811 206.022 55.7004V43.5128Z" fill="#132844"/>
<path d="M52.7688 4H45.8018C22.7153 4 4 22.7153 4 45.8018V76.4565H52.7688" stroke="#132844" stroke-width="7.66366"/>
</svg>
