<svg width="211" height="71" viewBox="0 0 211 71" fill="none" xmlns="http://www.w3.org/2000/svg">
<path d="M19.2722 41.4385C19.2722 40.1339 19.0575 39.143 18.6281 38.4659C18.2153 37.7723 17.6703 37.4255 16.9932 37.4255C16.6959 37.4255 16.3161 37.4916 15.8537 37.6237C15.4078 37.7558 14.9289 37.9457 14.417 38.1935C13.905 38.4412 13.3848 38.7302 12.8564 39.0605C12.3444 39.3907 11.8655 39.7541 11.4196 40.1504V58.7538H3.6414V23.2811L9.11589 20.4571H11.4196V35.4438C12.5921 34.5851 13.8968 33.9493 15.3335 33.5364C16.7868 33.1071 18.207 32.8924 19.5942 32.8924C20.6181 32.8924 21.5759 33.0988 22.4677 33.5117C23.376 33.908 24.1604 34.4612 24.821 35.1713C25.4981 35.8649 26.0265 36.6824 26.4064 37.6237C26.8027 38.565 27.0009 39.5641 27.0009 40.6211V58.7538H19.2722V41.4385ZM43.5358 59.3235C41.7357 59.3235 40.043 58.9932 38.4577 58.3326C36.8723 57.6556 35.4933 56.7555 34.3208 55.6326C33.1483 54.4931 32.2153 53.1802 31.5217 51.6939C30.8446 50.1911 30.506 48.6057 30.506 46.9378C30.506 44.9395 30.8198 43.0899 31.4473 41.389C32.0749 39.6715 32.9667 38.1852 34.1227 36.9301C35.2787 35.675 36.6576 34.7007 38.2595 34.0071C39.8779 33.297 41.6779 32.9419 43.6597 32.9419C45.4267 32.9419 47.0451 33.2227 48.5149 33.7841C49.9846 34.3456 51.2397 35.1135 52.2801 36.0879C53.337 37.0622 54.1545 38.21 54.7325 39.5311C55.3105 40.8523 55.5995 42.2642 55.5995 43.767H38.0365C38.1026 45.1707 38.309 46.5084 38.6558 47.78C39.0191 49.0516 39.4981 50.1746 40.0926 51.1489C40.6871 52.1068 41.3807 52.8747 42.1734 53.4527C42.9826 54.0142 43.8743 54.2949 44.8487 54.2949C45.6909 54.2949 46.5166 54.1545 47.3258 53.8738C48.1515 53.5765 48.9112 53.1802 49.6048 52.6848C50.2984 52.1728 50.9012 51.5866 51.4131 50.926C51.9251 50.2489 52.2966 49.5223 52.5278 48.7461L56.4417 49.3654C56.0454 50.7361 55.4096 52.0242 54.5343 53.2297C53.6756 54.4353 52.66 55.4922 51.4874 56.4005C50.3314 57.3088 49.0681 58.0271 47.6974 58.5556C46.3267 59.0675 44.9395 59.3235 43.5358 59.3235ZM46.7809 41.1413C46.7148 40.3981 46.5497 39.721 46.2854 39.11C46.0377 38.4825 45.7157 37.9457 45.3193 37.4999C44.923 37.054 44.4606 36.7154 43.9321 36.4842C43.4037 36.2365 42.8339 36.1127 42.2229 36.1127C41.744 36.1127 41.2733 36.2365 40.8109 36.4842C40.3485 36.7154 39.9274 37.054 39.5476 37.4999C39.1843 37.9292 38.8705 38.4577 38.6063 39.0852C38.3586 39.6963 38.1934 40.3816 38.1109 41.1413H46.7809ZM67.406 58.7538H59.7516V23.2811L65.1022 20.4571H67.406V58.7538ZM80.1555 58.7538H72.5012V23.2811L77.8518 20.4571H80.1555V58.7538ZM97.686 59.2244C95.6712 59.2244 93.8051 58.8941 92.0876 58.2336C90.3867 57.573 88.9086 56.6647 87.6535 55.5087C86.415 54.3527 85.4406 52.9985 84.7305 51.4462C84.0369 49.8773 83.6901 48.1846 83.6901 46.368C83.6901 44.4193 84.0369 42.6275 84.7305 40.9926C85.4406 39.3412 86.415 37.921 87.6535 36.7319C88.8921 35.5429 90.3619 34.6181 92.0629 33.9575C93.7803 33.2805 95.6465 32.9419 97.6612 32.9419C99.676 32.9419 101.542 33.2722 103.26 33.9328C104.977 34.5768 106.455 35.4686 107.694 36.6081C108.949 37.7476 109.931 39.0935 110.641 40.6458C111.352 42.1817 111.707 43.8413 111.707 45.6249C111.707 47.491 111.352 49.2498 110.641 50.9012C109.948 52.5526 108.973 53.9976 107.718 55.2362C106.48 56.4583 105.002 57.4326 103.284 58.1592C101.567 58.8694 99.7007 59.2244 97.686 59.2244ZM98.5777 56.128C99.2714 56.128 99.9154 55.905 100.51 55.4592C101.104 54.9968 101.616 54.3857 102.046 53.6261C102.492 52.8499 102.83 51.9581 103.061 50.9508C103.309 49.9434 103.433 48.8947 103.433 47.8048C103.433 46.1864 103.309 44.6671 103.061 43.2468C102.83 41.8101 102.442 40.555 101.897 39.4816C101.352 38.4081 100.642 37.5577 99.7668 36.9301C98.908 36.3026 97.8511 35.9888 96.596 35.9888C95.985 35.9888 95.3987 36.2117 94.8373 36.6576C94.2758 37.1035 93.7803 37.7063 93.351 38.4659C92.9216 39.2091 92.5748 40.0761 92.3106 41.0669C92.0629 42.0413 91.939 43.0734 91.939 44.1634C91.939 45.7983 92.0876 47.3424 92.3849 48.7956C92.6987 50.2489 93.1363 51.5205 93.6978 52.6104C94.2758 53.6839 94.9694 54.5426 95.7786 55.1867C96.6043 55.8142 97.5373 56.128 98.5777 56.128ZM117.648 64.2035C118.425 65.3925 119.193 66.21 119.952 66.6558C120.712 67.1182 121.513 67.3494 122.355 67.3494C122.57 67.3494 122.76 67.2916 122.925 67.176C123.09 67.077 123.23 66.887 123.346 66.6063C123.461 66.3256 123.544 65.9457 123.594 65.4668C123.643 64.9879 123.668 64.3769 123.668 63.6337V35.6915L129.093 32.8676H131.397V59.8685C131.397 62.1144 131.108 63.9227 130.53 65.2934C129.968 66.6806 129.2 67.754 128.226 68.5137C127.268 69.2734 126.145 69.7853 124.857 70.0495C123.569 70.3138 122.206 70.4459 120.77 70.4459C119.779 70.4459 118.912 70.3303 118.169 70.0991C117.409 69.8844 116.748 69.6119 116.187 69.2816C115.609 68.9513 115.114 68.588 114.701 68.1917C114.288 67.8118 113.924 67.4568 113.611 67.1265L117.648 64.2035ZM123.371 24.5444C123.371 24.0325 123.478 23.5453 123.693 23.0829C123.907 22.6205 124.196 22.2241 124.56 21.8939C124.94 21.5636 125.377 21.2993 125.873 21.1012C126.368 20.903 126.905 20.8039 127.483 20.8039C128.044 20.8039 128.573 20.903 129.068 21.1012C129.58 21.2993 130.026 21.5636 130.406 21.8939C130.786 22.2241 131.083 22.6205 131.298 23.0829C131.512 23.5453 131.62 24.0325 131.62 24.5444C131.62 25.0563 131.512 25.5435 131.298 26.0059C131.083 26.4518 130.786 26.8399 130.406 27.1702C130.026 27.5005 129.58 27.7647 129.068 27.9629C128.573 28.161 128.044 28.2601 127.483 28.2601C126.905 28.2601 126.368 28.161 125.873 27.9629C125.377 27.7647 124.94 27.5005 124.56 27.1702C124.196 26.8399 123.907 26.4518 123.693 26.0059C123.478 25.5435 123.371 25.0563 123.371 24.5444ZM148.206 59.3235C146.406 59.3235 144.713 58.9932 143.128 58.3326C141.542 57.6556 140.163 56.7555 138.991 55.6326C137.818 54.4931 136.885 53.1802 136.192 51.6939C135.515 50.1911 135.176 48.6057 135.176 46.9378C135.176 44.9395 135.49 43.0899 136.117 41.389C136.745 39.6715 137.637 38.1852 138.793 36.9301C139.949 35.675 141.328 34.7007 142.929 34.0071C144.548 33.297 146.348 32.9419 148.33 32.9419C150.097 32.9419 151.715 33.2227 153.185 33.7841C154.655 34.3456 155.91 35.1135 156.95 36.0879C158.007 37.0622 158.824 38.21 159.402 39.5311C159.98 40.8523 160.269 42.2642 160.269 43.767H142.707C142.773 45.1707 142.979 46.5084 143.326 47.78C143.689 49.0516 144.168 50.1746 144.763 51.1489C145.357 52.1068 146.051 52.8747 146.843 53.4527C147.653 54.0142 148.544 54.2949 149.519 54.2949C150.361 54.2949 151.187 54.1545 151.996 53.8738C152.822 53.5765 153.581 53.1802 154.275 52.6848C154.968 52.1728 155.571 51.5866 156.083 50.926C156.595 50.2489 156.967 49.5223 157.198 48.7461L161.112 49.3654C160.715 50.7361 160.08 52.0242 159.204 53.2297C158.346 54.4353 157.33 55.4922 156.157 56.4005C155.001 57.3088 153.738 58.0271 152.367 58.5556C150.997 59.0675 149.609 59.3235 148.206 59.3235ZM151.451 41.1413C151.385 40.3981 151.22 39.721 150.955 39.11C150.708 38.4825 150.386 37.9457 149.989 37.4999C149.593 37.054 149.131 36.7154 148.602 36.4842C148.074 36.2365 147.504 36.1127 146.893 36.1127C146.414 36.1127 145.943 36.2365 145.481 36.4842C145.019 36.7154 144.597 37.054 144.218 37.4999C143.854 37.9292 143.54 38.4577 143.276 39.0852C143.029 39.6963 142.863 40.3816 142.781 41.1413H151.451ZM180.424 57.2675C179.483 57.9115 178.459 58.4152 177.352 58.7785C176.246 59.1418 175.156 59.3235 174.082 59.3235C172.497 59.3235 171.003 58.9684 169.599 58.2583C168.212 57.5482 166.998 56.5986 165.957 55.4096C164.917 54.2041 164.1 52.8251 163.505 51.2728C162.911 49.7039 162.613 48.069 162.613 46.368C162.613 44.6671 162.977 43.0156 163.703 41.4137C164.43 39.7953 165.421 38.3586 166.676 37.1035C167.947 35.8484 169.425 34.8411 171.11 34.0814C172.811 33.3217 174.627 32.9419 176.56 32.9419C177.303 32.9419 177.996 32.9997 178.64 33.1153C179.301 33.2309 179.895 33.3878 180.424 33.586V23.2811L185.775 20.4571H188.078V58.7538H180.424V57.2675ZM180.424 41.5128C180.424 40.7036 180.292 39.9605 180.028 39.2834C179.78 38.6063 179.441 38.0283 179.012 37.5494C178.599 37.054 178.128 36.6741 177.6 36.4099C177.072 36.1457 176.543 36.0136 176.015 36.0136C175.321 36.0136 174.66 36.2448 174.033 36.7072C173.405 37.1531 172.852 37.7806 172.373 38.5898C171.911 39.3825 171.539 40.3321 171.259 41.4385C170.978 42.5285 170.837 43.7175 170.837 45.0056C170.837 46.4093 170.994 47.747 171.308 49.0186C171.638 50.2902 172.076 51.4132 172.621 52.3875C173.166 53.3453 173.802 54.1132 174.528 54.6912C175.255 55.2692 176.031 55.5582 176.857 55.5582C177.138 55.5582 177.443 55.517 177.773 55.4344C178.104 55.3353 178.426 55.2032 178.739 55.038C179.07 54.8729 179.375 54.683 179.656 54.4683C179.953 54.2371 180.209 53.9811 180.424 53.7004V41.5128Z" fill="#132844"/>
<path fill-rule="evenodd" clip-rule="evenodd" d="M20.9287 14.5263V24H15.8761V14.5263H6.4024V9.47369H15.8761V1.89474L19.3498 0H20.9287V9.47368H30.4024V11.0526L28.5077 14.5263H20.9287Z" fill="#F4B5D3"/>
</svg>
